<svg width="172" height="165" viewBox="0 0 172 165" fill="none" xmlns="http://www.w3.org/2000/svg">
<path d="M4.8 127V112.72H16.1V127H13.08V115.24H7.82V127H4.8ZM25.5423 115.88C26.769 115.88 27.7623 116.36 28.5223 117.32C29.2823 118.267 29.6623 119.667 29.6623 121.52C29.6623 123.373 29.269 124.787 28.4823 125.76C27.6957 126.72 26.689 127.2 25.4623 127.2C24.6757 127.2 24.049 127.06 23.5823 126.78C23.1157 126.487 22.7357 126.16 22.4423 125.8H22.2823C22.389 126.36 22.4423 126.893 22.4423 127.4V131.8H19.4623V116.08H21.8823L22.3023 117.5H22.4423C22.7357 117.06 23.129 116.68 23.6223 116.36C24.1157 116.04 24.7557 115.88 25.5423 115.88ZM24.5823 118.26C23.809 118.26 23.2623 118.5 22.9423 118.98C22.6357 119.46 22.469 120.193 22.4423 121.18V121.5C22.4423 122.553 22.5957 123.367 22.9023 123.94C23.2223 124.5 23.7957 124.78 24.6223 124.78C25.3023 124.78 25.8023 124.5 26.1223 123.94C26.4557 123.367 26.6223 122.547 26.6223 121.48C26.6223 119.333 25.9423 118.26 24.5823 118.26ZM34.9986 120.4C34.9986 120.627 34.9853 120.907 34.9586 121.24C34.9453 121.573 34.9253 121.913 34.8986 122.26C34.8853 122.607 34.8653 122.913 34.8386 123.18C34.8119 123.447 34.7919 123.633 34.7786 123.74L39.8186 116.08H43.3986V127H40.5186V122.64C40.5186 122.28 40.5319 121.887 40.5586 121.46C40.5853 121.02 40.6119 120.613 40.6386 120.24C40.6786 119.853 40.7053 119.56 40.7186 119.36L35.6986 127H32.1186V116.08H34.9986V120.4ZM49.4931 116.08V120.28H53.6531V116.08H56.6331V127H53.6531V122.5H49.4931V127H46.5131V116.08H49.4931ZM62.6353 120.4C62.6353 120.627 62.622 120.907 62.5953 121.24C62.582 121.573 62.562 121.913 62.5353 122.26C62.522 122.607 62.502 122.913 62.4753 123.18C62.4486 123.447 62.4286 123.633 62.4153 123.74L67.4553 116.08H71.0353V127H68.1553V122.64C68.1553 122.28 68.1686 121.887 68.1953 121.46C68.222 121.02 68.2486 120.613 68.2753 120.24C68.3153 119.853 68.342 119.56 68.3553 119.36L63.3353 127H59.7553V116.08H62.6353V120.4ZM87.9098 116.08V127H85.1298V121.64C85.1298 121.107 85.1365 120.587 85.1498 120.08C85.1765 119.573 85.2098 119.107 85.2498 118.68H85.1898L82.1698 127H79.9298L76.8698 118.66H76.7898C76.8432 119.1 76.8765 119.573 76.8898 120.08C76.9165 120.573 76.9298 121.12 76.9298 121.72V127H74.1498V116.08H78.3698L81.0898 123.48L83.8498 116.08H87.9098ZM95.5048 115.86C96.9715 115.86 98.0915 116.18 98.8648 116.82C99.6515 117.447 100.045 118.413 100.045 119.72V127H97.9648L97.3848 125.52H97.3048C96.8382 126.107 96.3448 126.533 95.8248 126.8C95.3048 127.067 94.5915 127.2 93.6848 127.2C92.7115 127.2 91.9048 126.92 91.2648 126.36C90.6248 125.787 90.3048 124.913 90.3048 123.74C90.3048 122.58 90.7115 121.727 91.5248 121.18C92.3382 120.62 93.5582 120.313 95.1848 120.26L97.0848 120.2V119.72C97.0848 119.147 96.9315 118.727 96.6248 118.46C96.3315 118.193 95.9182 118.06 95.3848 118.06C94.8515 118.06 94.3315 118.14 93.8248 118.3C93.3182 118.447 92.8115 118.633 92.3048 118.86L91.3248 116.84C91.9115 116.533 92.5582 116.293 93.2648 116.12C93.9848 115.947 94.7315 115.86 95.5048 115.86ZM95.9248 121.98C94.9648 122.007 94.2982 122.18 93.9248 122.5C93.5515 122.82 93.3648 123.24 93.3648 123.76C93.3648 124.213 93.4982 124.54 93.7648 124.74C94.0315 124.927 94.3782 125.02 94.8048 125.02C95.4448 125.02 95.9848 124.833 96.4248 124.46C96.8648 124.073 97.0848 123.533 97.0848 122.84V121.94L95.9248 121.98ZM107.595 115.88C109.102 115.88 110.295 116.313 111.175 117.18C112.055 118.033 112.495 119.253 112.495 120.84V122.28H105.455C105.482 123.12 105.728 123.78 106.195 124.26C106.675 124.74 107.335 124.98 108.175 124.98C108.882 124.98 109.522 124.913 110.095 124.78C110.668 124.633 111.262 124.413 111.875 124.12V126.42C111.342 126.687 110.775 126.88 110.175 127C109.588 127.133 108.875 127.2 108.035 127.2C106.942 127.2 105.975 127 105.135 126.6C104.295 126.187 103.635 125.567 103.155 124.74C102.675 123.913 102.435 122.873 102.435 121.62C102.435 120.34 102.648 119.28 103.075 118.44C103.515 117.587 104.122 116.947 104.895 116.52C105.668 116.093 106.568 115.88 107.595 115.88ZM107.615 118C107.042 118 106.562 118.187 106.175 118.56C105.802 118.933 105.582 119.513 105.515 120.3H109.695C109.682 119.633 109.508 119.087 109.175 118.66C108.842 118.22 108.322 118 107.615 118ZM123.952 118.32H120.372V127H117.392V118.32H113.812V116.08H123.952V118.32ZM130.271 115.88C131.778 115.88 132.971 116.313 133.851 117.18C134.731 118.033 135.171 119.253 135.171 120.84V122.28H128.131C128.158 123.12 128.404 123.78 128.871 124.26C129.351 124.74 130.011 124.98 130.851 124.98C131.558 124.98 132.198 124.913 132.771 124.78C133.344 124.633 133.938 124.413 134.551 124.12V126.42C134.018 126.687 133.451 126.88 132.851 127C132.264 127.133 131.551 127.2 130.711 127.2C129.618 127.2 128.651 127 127.811 126.6C126.971 126.187 126.311 125.567 125.831 124.74C125.351 123.913 125.111 122.873 125.111 121.62C125.111 120.34 125.324 119.28 125.751 118.44C126.191 117.587 126.798 116.947 127.571 116.52C128.344 116.093 129.244 115.88 130.271 115.88ZM130.291 118C129.718 118 129.238 118.187 128.851 118.56C128.478 118.933 128.258 119.513 128.191 120.3H132.371C132.358 119.633 132.184 119.087 131.851 118.66C131.518 118.22 130.998 118 130.291 118ZM10.64 145.88C11.8667 145.88 12.86 146.36 13.62 147.32C14.38 148.267 14.76 149.667 14.76 151.52C14.76 153.373 14.3667 154.787 13.58 155.76C12.7933 156.72 11.7867 157.2 10.56 157.2C9.77333 157.2 9.14667 157.06 8.68 156.78C8.21333 156.487 7.83333 156.16 7.54 155.8H7.38C7.48667 156.36 7.54 156.893 7.54 157.4V161.8H4.56V146.08H6.98L7.4 147.5H7.54C7.83333 147.06 8.22667 146.68 8.72 146.36C9.21333 146.04 9.85333 145.88 10.64 145.88ZM9.68 148.26C8.90667 148.26 8.36 148.5 8.04 148.98C7.73333 149.46 7.56667 150.193 7.54 151.18V151.5C7.54 152.553 7.69333 153.367 8 153.94C8.32 154.5 8.89333 154.78 9.72 154.78C10.4 154.78 10.9 154.5 11.22 153.94C11.5533 153.367 11.72 152.547 11.72 151.48C11.72 149.333 11.04 148.26 9.68 148.26ZM21.6963 145.86C23.1629 145.86 24.2829 146.18 25.0563 146.82C25.8429 147.447 26.2363 148.413 26.2363 149.72V157H24.1563L23.5763 155.52H23.4963C23.0296 156.107 22.5363 156.533 22.0163 156.8C21.4963 157.067 20.7829 157.2 19.8763 157.2C18.9029 157.2 18.0963 156.92 17.4563 156.36C16.8163 155.787 16.4963 154.913 16.4963 153.74C16.4963 152.58 16.9029 151.727 17.7163 151.18C18.5296 150.62 19.7496 150.313 21.3763 150.26L23.2763 150.2V149.72C23.2763 149.147 23.1229 148.727 22.8163 148.46C22.5229 148.193 22.1096 148.06 21.5763 148.06C21.0429 148.06 20.5229 148.14 20.0163 148.3C19.5096 148.447 19.0029 148.633 18.4963 148.86L17.5163 146.84C18.1029 146.533 18.7496 146.293 19.4563 146.12C20.1763 145.947 20.9229 145.86 21.6963 145.86ZM22.1163 151.98C21.1563 152.007 20.4896 152.18 20.1163 152.5C19.7429 152.82 19.5563 153.24 19.5563 153.76C19.5563 154.213 19.6896 154.54 19.9563 154.74C20.2229 154.927 20.5696 155.02 20.9963 155.02C21.6363 155.02 22.1763 154.833 22.6163 154.46C23.0563 154.073 23.2763 153.533 23.2763 152.84V151.94L22.1163 151.98ZM28.6266 150.46C28.6266 148.047 29.0799 146.173 29.9866 144.84C30.9066 143.507 32.4199 142.653 34.5266 142.28C35.2332 142.16 35.9466 142.06 36.6666 141.98C37.3999 141.887 38.1532 141.793 38.9266 141.7L39.2666 144.3C38.8132 144.353 38.3132 144.413 37.7666 144.48C37.2332 144.547 36.6999 144.613 36.1666 144.68C35.6466 144.733 35.1799 144.793 34.7666 144.86C34.0999 144.967 33.5466 145.133 33.1066 145.36C32.6666 145.573 32.3266 145.92 32.0866 146.4C31.8599 146.88 31.7199 147.573 31.6666 148.48H31.8066C31.9666 148.227 32.1866 147.973 32.4666 147.72C32.7599 147.467 33.1199 147.253 33.5466 147.08C33.9732 146.907 34.4599 146.82 35.0066 146.82C36.3132 146.82 37.3466 147.22 38.1066 148.02C38.8799 148.82 39.2666 150.013 39.2666 151.6C39.2666 152.84 39.0399 153.873 38.5866 154.7C38.1332 155.527 37.5066 156.153 36.7066 156.58C35.9066 156.993 34.9799 157.2 33.9266 157.2C32.3132 157.2 31.0266 156.62 30.0666 155.46C29.1066 154.3 28.6266 152.633 28.6266 150.46ZM34.1066 154.78C34.7332 154.78 35.2399 154.567 35.6266 154.14C36.0266 153.713 36.2266 152.953 36.2266 151.86C36.2266 150.993 36.0799 150.307 35.7866 149.8C35.5066 149.28 35.0132 149.02 34.3066 149.02C33.8799 149.02 33.4799 149.127 33.1066 149.34C32.7466 149.54 32.4399 149.773 32.1866 150.04C31.9332 150.293 31.7599 150.513 31.6666 150.7C31.6666 151.38 31.7399 152.033 31.8866 152.66C32.0332 153.287 32.2799 153.8 32.6266 154.2C32.9866 154.587 33.4799 154.78 34.1066 154.78ZM51.648 151.52C51.648 153.333 51.168 154.733 50.208 155.72C49.2613 156.707 47.968 157.2 46.328 157.2C45.3146 157.2 44.408 156.98 43.608 156.54C42.8213 156.1 42.2013 155.46 41.748 154.62C41.2946 153.767 41.068 152.733 41.068 151.52C41.068 149.707 41.5413 148.313 42.488 147.34C43.4346 146.367 44.7346 145.88 46.388 145.88C47.4146 145.88 48.3213 146.1 49.108 146.54C49.8946 146.98 50.5146 147.62 50.968 148.46C51.4213 149.287 51.648 150.307 51.648 151.52ZM44.108 151.52C44.108 152.6 44.2813 153.42 44.628 153.98C44.988 154.527 45.568 154.8 46.368 154.8C47.1546 154.8 47.7213 154.527 48.068 153.98C48.428 153.42 48.608 152.6 48.608 151.52C48.608 150.44 48.428 149.633 48.068 149.1C47.7213 148.553 47.148 148.28 46.348 148.28C45.5613 148.28 44.988 148.553 44.628 149.1C44.2813 149.633 44.108 150.44 44.108 151.52ZM62.9555 148.32H59.3755V157H56.3955V148.32H52.8155V146.08H62.9555V148.32ZM63.4102 146.08H66.6702L68.7302 152.22C68.8368 152.513 68.9168 152.82 68.9702 153.14C69.0235 153.447 69.0635 153.773 69.0902 154.12H69.1502C69.1902 153.773 69.2435 153.447 69.3102 153.14C69.3902 152.82 69.4768 152.513 69.5702 152.22L71.5902 146.08H74.7902L70.1702 158.4C69.7568 159.533 69.1502 160.38 68.3502 160.94C67.5635 161.513 66.6502 161.8 65.6102 161.8C65.2768 161.8 64.9835 161.78 64.7302 161.74C64.4902 161.713 64.2768 161.68 64.0902 161.64V159.28C64.2368 159.307 64.4102 159.333 64.6102 159.36C64.8235 159.387 65.0435 159.4 65.2702 159.4C65.8968 159.4 66.3902 159.207 66.7502 158.82C67.1235 158.447 67.3968 157.993 67.5702 157.46L67.7502 156.92L63.4102 146.08Z" fill="#333333"/>
<path d="M49.5344 66.816C45.5904 66.816 42.0771 65.8413 38.9944 63.892C35.9118 61.9427 33.4864 59.132 31.7184 55.46C29.9958 51.7427 29.1344 47.3227 29.1344 42.2C29.1344 37.0773 29.9958 32.68 31.7184 29.008C33.4864 25.2907 35.9118 22.4573 38.9944 20.508C42.0771 18.5587 45.5904 17.584 49.5344 17.584C53.4784 17.584 56.9918 18.5587 60.0744 20.508C63.1571 22.4573 65.5598 25.2907 67.2824 29.008C69.0504 32.68 69.9344 37.0773 69.9344 42.2C69.9344 47.3227 69.0504 51.7427 67.2824 55.46C65.5598 59.132 63.1571 61.9427 60.0744 63.892C56.9918 65.8413 53.4784 66.816 49.5344 66.816ZM49.5344 57.5C52.4358 57.5 54.7024 56.2533 56.3344 53.76C58.0118 51.2667 58.8504 47.4133 58.8504 42.2C58.8504 36.9867 58.0118 33.1333 56.3344 30.64C54.7024 28.1467 52.4358 26.9 49.5344 26.9C46.6784 26.9 44.4118 28.1467 42.7344 30.64C41.1024 33.1333 40.2864 36.9867 40.2864 42.2C40.2864 47.4133 41.1024 51.2667 42.7344 53.76C44.4118 56.2533 46.6784 57.5 49.5344 57.5ZM118.875 56.004H111.123V66H100.379V56.004H74.7428V48.592L97.1828 18.4H108.743L87.9348 47.028H100.719V38.12H111.123V47.028H118.875V56.004Z" fill="#EAEAEA"/>
<circle cx="139.5" cy="63.5" r="2.5" fill="black"/>
<circle cx="139.5" cy="63.5" r="2.5" fill="black"/>
<circle cx="154.5" cy="63.5" r="2.5" fill="black"/>
<circle cx="154.5" cy="63.5" r="2.5" fill="black"/>
<circle cx="169.5" cy="63.5" r="2.5" fill="black"/>
<circle cx="169.5" cy="63.5" r="2.5" fill="black"/>
<path d="M79.5977 62.3581H77.0967C76.4061 60.6348 75.4698 59.4003 74.6202 58.5507C72.4694 56.3996 70.0408 55.8059 69.3478 55.6754C67.2405 55.2781 63.8623 55.174 60.4622 55.1988C60.4521 55.1986 60.4423 55.1972 60.4322 55.1972C60.4321 55.1972 60.4319 55.1972 60.4318 55.1972L22.2627 55.2049C22.2577 55.2049 22.2531 55.2055 22.2483 55.2057C18.6146 55.1607 14.9062 55.2504 12.6522 55.6754C11.9592 55.8059 9.53058 56.3996 7.37984 58.5507C6.53021 59.4005 5.59378 60.6348 4.90334 62.3581H2.40234C1.07561 62.3581 0 63.4337 0 64.7604C0 66.0872 1.07561 67.1628 2.40234 67.1628H3.90237C3.88683 67.472 3.87834 67.7895 3.87834 68.116C3.87834 78.4783 10.8426 83.9728 17.3134 84.6927C17.9879 84.7678 18.6625 84.8048 19.3345 84.8048C23.7254 84.8046 27.9974 83.2228 31.2969 80.3254C33.9004 78.0395 36.9283 74.0035 38.1353 67.1626H43.8647C45.0717 74.0034 48.0996 78.0395 50.7031 80.3254C54.0029 83.2229 58.2743 84.8048 62.6655 84.8048C63.3372 84.8046 64.0124 84.7678 64.6866 84.6927C71.1573 83.9728 78.1217 78.4783 78.1217 68.116C78.1217 67.7895 78.1132 67.472 78.0976 67.1628H79.5977C80.9244 67.1628 82 66.0872 82 64.7604C82 63.4337 80.9244 62.3581 79.5977 62.3581ZM43.3607 62.3581H38.6393C38.6503 62.0764 38.6598 61.7923 38.6652 61.503C38.6749 60.992 38.615 60.49 38.4923 60.0064L43.5082 60.0054C43.3854 60.4894 43.3251 60.9916 43.3349 61.5032C43.3402 61.7923 43.3497 62.0764 43.3607 62.3581Z" fill="#219653"/>
</svg>
