<svg width="163" height="165" viewBox="0 0 163 165" fill="none" xmlns="http://www.w3.org/2000/svg">
<path d="M11.36 112.72C13.2 112.72 14.54 113.12 15.38 113.92C16.2333 114.707 16.66 115.793 16.66 117.18C16.66 118.007 16.4867 118.787 16.14 119.52C15.7933 120.24 15.2133 120.82 14.4 121.26C13.6 121.7 12.5067 121.92 11.12 121.92H9.82V127H6.8V112.72H11.36ZM11.2 115.2H9.82V119.44H10.82C11.6733 119.44 12.3467 119.273 12.84 118.94C13.3467 118.593 13.6 118.04 13.6 117.28C13.6 115.893 12.8 115.2 11.2 115.2ZM23.5986 115.86C25.0653 115.86 26.1853 116.18 26.9586 116.82C27.7453 117.447 28.1386 118.413 28.1386 119.72V127H26.0586L25.4786 125.52H25.3986C24.9319 126.107 24.4386 126.533 23.9186 126.8C23.3986 127.067 22.6853 127.2 21.7786 127.2C20.8053 127.2 19.9986 126.92 19.3586 126.36C18.7186 125.787 18.3986 124.913 18.3986 123.74C18.3986 122.58 18.8053 121.727 19.6186 121.18C20.4319 120.62 21.6519 120.313 23.2786 120.26L25.1786 120.2V119.72C25.1786 119.147 25.0253 118.727 24.7186 118.46C24.4253 118.193 24.0119 118.06 23.4786 118.06C22.9453 118.06 22.4253 118.14 21.9186 118.3C21.4119 118.447 20.9053 118.633 20.3986 118.86L19.4186 116.84C20.0053 116.533 20.6519 116.293 21.3586 116.12C22.0786 115.947 22.8253 115.86 23.5986 115.86ZM24.0186 121.98C23.0586 122.007 22.3919 122.18 22.0186 122.5C21.6453 122.82 21.4586 123.24 21.4586 123.76C21.4586 124.213 21.5919 124.54 21.8586 124.74C22.1253 124.927 22.4719 125.02 22.8986 125.02C23.5386 125.02 24.0786 124.833 24.5186 124.46C24.9586 124.073 25.1786 123.533 25.1786 122.84V121.94L24.0186 121.98ZM35.6289 127.2C34.0022 127.2 32.7422 126.753 31.8489 125.86C30.9689 124.953 30.5289 123.533 30.5289 121.6C30.5289 120.267 30.7556 119.18 31.2089 118.34C31.6622 117.5 32.2889 116.88 33.0889 116.48C33.9022 116.08 34.8356 115.88 35.8889 115.88C36.6356 115.88 37.2822 115.953 37.8289 116.1C38.3889 116.247 38.8756 116.42 39.2889 116.62L38.4089 118.92C37.9422 118.733 37.5022 118.58 37.0889 118.46C36.6889 118.34 36.2889 118.28 35.8889 118.28C34.3422 118.28 33.5689 119.38 33.5689 121.58C33.5689 122.673 33.7689 123.48 34.1689 124C34.5822 124.52 35.1556 124.78 35.8889 124.78C36.5156 124.78 37.0689 124.7 37.5489 124.54C38.0289 124.367 38.4956 124.133 38.9489 123.84V126.38C38.4956 126.673 38.0156 126.88 37.5089 127C37.0156 127.133 36.3889 127.2 35.6289 127.2ZM44.0823 120.08C44.0823 121.027 44.5223 121.5 45.4023 121.5C45.9757 121.5 46.509 121.44 47.0023 121.32C47.4957 121.187 47.989 121.013 48.4823 120.8V116.08H51.4623V127H48.4823V122.66C48.0157 122.913 47.4823 123.147 46.8823 123.36C46.2823 123.56 45.6023 123.66 44.8423 123.66C43.709 123.66 42.8023 123.367 42.1223 122.78C41.4423 122.193 41.1023 121.313 41.1023 120.14V116.08H44.0823V120.08ZM59.0873 115.88C60.594 115.88 61.7873 116.313 62.6673 117.18C63.5473 118.033 63.9873 119.253 63.9873 120.84V122.28H56.9473C56.974 123.12 57.2207 123.78 57.6873 124.26C58.1673 124.74 58.8273 124.98 59.6673 124.98C60.374 124.98 61.014 124.913 61.5873 124.78C62.1607 124.633 62.754 124.413 63.3673 124.12V126.42C62.834 126.687 62.2673 126.88 61.6673 127C61.0807 127.133 60.3673 127.2 59.5273 127.2C58.434 127.2 57.4673 127 56.6273 126.6C55.7873 126.187 55.1273 125.567 54.6473 124.74C54.1673 123.913 53.9273 122.873 53.9273 121.62C53.9273 120.34 54.1407 119.28 54.5673 118.44C55.0073 117.587 55.614 116.947 56.3873 116.52C57.1607 116.093 58.0607 115.88 59.0873 115.88ZM59.1073 118C58.534 118 58.054 118.187 57.6673 118.56C57.294 118.933 57.074 119.513 57.0073 120.3H61.1873C61.174 119.633 61.0007 119.087 60.6673 118.66C60.334 118.22 59.814 118 59.1073 118ZM75.4438 118.32H71.8638V127H68.8838V118.32H65.3038V116.08H75.4438V118.32ZM11 157.2C9.37333 157.2 8.11333 156.753 7.22 155.86C6.34 154.953 5.9 153.533 5.9 151.6C5.9 150.267 6.12667 149.18 6.58 148.34C7.03333 147.5 7.66 146.88 8.46 146.48C9.27333 146.08 10.2067 145.88 11.26 145.88C12.0067 145.88 12.6533 145.953 13.2 146.1C13.76 146.247 14.2467 146.42 14.66 146.62L13.78 148.92C13.3133 148.733 12.8733 148.58 12.46 148.46C12.06 148.34 11.66 148.28 11.26 148.28C9.71333 148.28 8.94 149.38 8.94 151.58C8.94 152.673 9.14 153.48 9.54 154C9.95333 154.52 10.5267 154.78 11.26 154.78C11.8867 154.78 12.44 154.7 12.92 154.54C13.4 154.367 13.8667 154.133 14.32 153.84V156.38C13.8667 156.673 13.3867 156.88 12.88 157C12.3867 157.133 11.76 157.2 11 157.2ZM25.8734 148.32H22.2934V157H19.3134V148.32H15.7334V146.08H25.8734V148.32ZM37.6128 151.52C37.6128 153.333 37.1328 154.733 36.1728 155.72C35.2261 156.707 33.9328 157.2 32.2928 157.2C31.2795 157.2 30.3728 156.98 29.5728 156.54C28.7861 156.1 28.1661 155.46 27.7128 154.62C27.2595 153.767 27.0328 152.733 27.0328 151.52C27.0328 149.707 27.5061 148.313 28.4528 147.34C29.3995 146.367 30.6995 145.88 32.3528 145.88C33.3795 145.88 34.2861 146.1 35.0728 146.54C35.8595 146.98 36.4795 147.62 36.9328 148.46C37.3861 149.287 37.6128 150.307 37.6128 151.52ZM30.0728 151.52C30.0728 152.6 30.2461 153.42 30.5928 153.98C30.9528 154.527 31.5328 154.8 32.3328 154.8C33.1195 154.8 33.6861 154.527 34.0328 153.98C34.3928 153.42 34.5728 152.6 34.5728 151.52C34.5728 150.44 34.3928 149.633 34.0328 149.1C33.6861 148.553 33.1128 148.28 32.3128 148.28C31.5261 148.28 30.9528 148.553 30.5928 149.1C30.2461 149.633 30.0728 150.44 30.0728 151.52ZM42.9556 150.4C42.9556 150.627 42.9423 150.907 42.9156 151.24C42.9023 151.573 42.8823 151.913 42.8556 152.26C42.8423 152.607 42.8223 152.913 42.7956 153.18C42.769 153.447 42.749 153.633 42.7356 153.74L47.7756 146.08H51.3556V157H48.4756V152.64C48.4756 152.28 48.489 151.887 48.5156 151.46C48.5423 151.02 48.569 150.613 48.5956 150.24C48.6356 149.853 48.6623 149.56 48.6756 149.36L43.6556 157H40.0756V146.08H42.9556V150.4ZM68.2302 146.08V157H65.4502V151.64C65.4502 151.107 65.4568 150.587 65.4702 150.08C65.4968 149.573 65.5302 149.107 65.5702 148.68H65.5102L62.4902 157H60.2502L57.1902 148.66H57.1102C57.1635 149.1 57.1968 149.573 57.2102 150.08C57.2368 150.573 57.2502 151.12 57.2502 151.72V157H54.4702V146.08H58.6902L61.4102 153.48L64.1702 146.08H68.2302ZM81.2652 151.52C81.2652 153.333 80.7852 154.733 79.8252 155.72C78.8785 156.707 77.5852 157.2 75.9452 157.2C74.9318 157.2 74.0252 156.98 73.2252 156.54C72.4385 156.1 71.8185 155.46 71.3652 154.62C70.9118 153.767 70.6852 152.733 70.6852 151.52C70.6852 149.707 71.1585 148.313 72.1052 147.34C73.0518 146.367 74.3518 145.88 76.0052 145.88C77.0318 145.88 77.9385 146.1 78.7252 146.54C79.5118 146.98 80.1318 147.62 80.5852 148.46C81.0385 149.287 81.2652 150.307 81.2652 151.52ZM73.7252 151.52C73.7252 152.6 73.8985 153.42 74.2452 153.98C74.6052 154.527 75.1852 154.8 75.9852 154.8C76.7718 154.8 77.3385 154.527 77.6852 153.98C78.0452 153.42 78.2252 152.6 78.2252 151.52C78.2252 150.44 78.0452 149.633 77.6852 149.1C77.3385 148.553 76.7652 148.28 75.9652 148.28C75.1785 148.28 74.6052 148.553 74.2452 149.1C73.8985 149.633 73.7252 150.44 73.7252 151.52ZM88.168 157.2C86.5413 157.2 85.2813 156.753 84.388 155.86C83.508 154.953 83.068 153.533 83.068 151.6C83.068 150.267 83.2946 149.18 83.748 148.34C84.2013 147.5 84.828 146.88 85.628 146.48C86.4413 146.08 87.3746 145.88 88.428 145.88C89.1746 145.88 89.8213 145.953 90.368 146.1C90.928 146.247 91.4146 146.42 91.828 146.62L90.948 148.92C90.4813 148.733 90.0413 148.58 89.628 148.46C89.228 148.34 88.828 148.28 88.428 148.28C86.8813 148.28 86.108 149.38 86.108 151.58C86.108 152.673 86.308 153.48 86.708 154C87.1213 154.52 87.6946 154.78 88.428 154.78C89.0546 154.78 89.608 154.7 90.088 154.54C90.568 154.367 91.0346 154.133 91.488 153.84V156.38C91.0346 156.673 90.5546 156.88 90.048 157C89.5546 157.133 88.928 157.2 88.168 157.2ZM103.041 148.32H99.4614V157H96.4814V148.32H92.9014V146.08H103.041V148.32ZM107.936 150.4C107.936 150.627 107.923 150.907 107.896 151.24C107.883 151.573 107.863 151.913 107.836 152.26C107.823 152.607 107.803 152.913 107.776 153.18C107.749 153.447 107.729 153.633 107.716 153.74L112.756 146.08H116.336V157H113.456V152.64C113.456 152.28 113.469 151.887 113.496 151.46C113.523 151.02 113.549 150.613 113.576 150.24C113.616 149.853 113.643 149.56 113.656 149.36L108.636 157H105.056V146.08H107.936V150.4Z" fill="#333333"/>
<path d="M44.1204 66.816C40.1764 66.816 36.663 65.8413 33.5804 63.892C30.4977 61.9427 28.0724 59.132 26.3044 55.46C24.5817 51.7427 23.7204 47.3227 23.7204 42.2C23.7204 37.0773 24.5817 32.68 26.3044 29.008C28.0724 25.2907 30.4977 22.4573 33.5804 20.508C36.663 18.5587 40.1764 17.584 44.1204 17.584C48.0644 17.584 51.5777 18.5587 54.6604 20.508C57.743 22.4573 60.1457 25.2907 61.8684 29.008C63.6364 32.68 64.5204 37.0773 64.5204 42.2C64.5204 47.3227 63.6364 51.7427 61.8684 55.46C60.1457 59.132 57.743 61.9427 54.6604 63.892C51.5777 65.8413 48.0644 66.816 44.1204 66.816ZM44.1204 57.5C47.0217 57.5 49.2884 56.2533 50.9204 53.76C52.5977 51.2667 53.4364 47.4133 53.4364 42.2C53.4364 36.9867 52.5977 33.1333 50.9204 30.64C49.2884 28.1467 47.0217 26.9 44.1204 26.9C41.2644 26.9 38.9977 28.1467 37.3204 30.64C35.6884 33.1333 34.8724 36.9867 34.8724 42.2C34.8724 47.4133 35.6884 51.2667 37.3204 53.76C38.9977 56.2533 41.2644 57.5 44.1204 57.5ZM105.038 57.024V66H69.0663V58.86L87.4263 41.52C89.3756 39.6613 90.6903 38.0747 91.3703 36.76C92.0503 35.4 92.3903 34.0627 92.3903 32.748C92.3903 30.844 91.7329 29.3933 90.4183 28.396C89.1489 27.3533 87.2676 26.832 84.7743 26.832C82.6889 26.832 80.8076 27.24 79.1303 28.056C77.4529 28.8267 76.0476 30.0053 74.9143 31.592L66.8903 26.424C68.7489 23.6587 71.3103 21.5053 74.5743 19.964C77.8383 18.3773 81.5783 17.584 85.7943 17.584C89.3303 17.584 92.4129 18.1733 95.0423 19.352C97.7169 20.4853 99.7796 22.1173 101.23 24.248C102.726 26.3333 103.474 28.804 103.474 31.66C103.474 34.244 102.93 36.6693 101.842 38.936C100.754 41.2027 98.6463 43.7867 95.5183 46.688L84.5703 57.024H105.038Z" fill="#EAEAEA"/>
<circle cx="130.5" cy="63.5" r="2.5" fill="black"/>
<circle cx="130.5" cy="63.5" r="2.5" fill="black"/>
<circle cx="145.5" cy="63.5" r="2.5" fill="black"/>
<circle cx="145.5" cy="63.5" r="2.5" fill="black"/>
<circle cx="160.5" cy="63.5" r="2.5" fill="black"/>
<circle cx="160.5" cy="63.5" r="2.5" fill="black"/>
<g clip-path="url(#clip0)">
<path d="M40.9063 41H10.0938C6.87013 41 4.25 43.6201 4.25 46.8438V86.1562C4.25 89.3799 6.87013 92 10.0938 92H40.9063C44.1299 92 46.75 89.3799 46.75 86.1562V46.8438C46.75 43.6201 44.1299 41 40.9063 41ZM20.7825 80.78C21.4051 81.4026 21.4051 82.412 20.7825 83.0346C20.4723 83.3449 20.0643 83.5 19.6563 83.5C19.2483 83.5 18.8403 83.3449 18.53 83.0325L17 81.5046L15.47 83.0346C15.1598 83.3449 14.7518 83.5 14.3438 83.5C13.9358 83.5 13.5278 83.3449 13.2175 83.0325C12.5949 82.4099 12.5949 81.4005 13.2175 80.7779L14.7454 79.25L13.2154 77.72C12.5928 77.0974 12.5928 76.088 13.2154 75.4654C13.838 74.8428 14.8474 74.8428 15.47 75.4654L17 76.9954L18.53 75.4654C19.1526 74.8428 20.162 74.8428 20.7846 75.4654C21.4073 76.088 21.4073 77.0974 20.7846 77.72L19.2546 79.25L20.7825 80.78ZM19.6563 68.0938H18.5938V69.1562C18.5938 70.036 17.8798 70.75 17 70.75C16.1203 70.75 15.4063 70.036 15.4063 69.1562V68.0938H14.3438C13.464 68.0938 12.75 67.3797 12.75 66.5C12.75 65.6203 13.464 64.9062 14.3438 64.9062H15.4063V63.8438C15.4063 62.964 16.1203 62.25 17 62.25C17.8798 62.25 18.5938 62.964 18.5938 63.8438V64.9062H19.6563C20.536 64.9062 21.25 65.6203 21.25 66.5C21.25 67.3797 20.536 68.0938 19.6563 68.0938ZM36.6563 83.5H31.3438C30.464 83.5 29.75 82.786 29.75 81.9062C29.75 81.0265 30.464 80.3125 31.3438 80.3125H36.6563C37.536 80.3125 38.25 81.0265 38.25 81.9062C38.25 82.786 37.536 83.5 36.6563 83.5ZM36.6563 78.1875H31.3438C30.464 78.1875 29.75 77.4735 29.75 76.5938C29.75 75.714 30.464 75 31.3438 75H36.6563C37.536 75 38.25 75.714 38.25 76.5938C38.25 77.4735 37.536 78.1875 36.6563 78.1875ZM36.6563 68.625H31.3438C30.464 68.625 29.75 67.911 29.75 67.0312C29.75 66.1515 30.464 65.4375 31.3438 65.4375H36.6563C37.536 65.4375 38.25 66.1515 38.25 67.0312C38.25 67.911 37.536 68.625 36.6563 68.625ZM40.375 54.2812C40.375 56.3319 38.7069 58 36.6563 58H14.3438C12.2931 58 10.625 56.3319 10.625 54.2812V51.0938C10.625 49.0431 12.2931 47.375 14.3438 47.375H36.6563C38.7069 47.375 40.375 49.0431 40.375 51.0938V54.2812Z" fill="#219653"/>
</g>
<defs>
<clipPath id="clip0">
<rect width="51" height="51" fill="white" transform="translate(0 41)"/>
</clipPath>
</defs>
</svg>
