<svg width="162" height="165" viewBox="0 0 162 165" fill="none" xmlns="http://www.w3.org/2000/svg">
<path d="M5.8 127V112.72H17.1V127H14.08V115.24H8.82V127H5.8ZM26.5423 115.88C27.769 115.88 28.7623 116.36 29.5223 117.32C30.2823 118.267 30.6623 119.667 30.6623 121.52C30.6623 123.373 30.269 124.787 29.4823 125.76C28.6957 126.72 27.689 127.2 26.4623 127.2C25.6757 127.2 25.049 127.06 24.5823 126.78C24.1157 126.487 23.7357 126.16 23.4423 125.8H23.2823C23.389 126.36 23.4423 126.893 23.4423 127.4V131.8H20.4623V116.08H22.8823L23.3023 117.5H23.4423C23.7357 117.06 24.129 116.68 24.6223 116.36C25.1157 116.04 25.7557 115.88 26.5423 115.88ZM25.5823 118.26C24.809 118.26 24.2623 118.5 23.9423 118.98C23.6357 119.46 23.469 120.193 23.4423 121.18V121.5C23.4423 122.553 23.5957 123.367 23.9023 123.94C24.2223 124.5 24.7957 124.78 25.6223 124.78C26.3023 124.78 26.8023 124.5 27.1223 123.94C27.4557 123.367 27.6223 122.547 27.6223 121.48C27.6223 119.333 26.9423 118.26 25.5823 118.26ZM35.9986 120.4C35.9986 120.627 35.9853 120.907 35.9586 121.24C35.9453 121.573 35.9253 121.913 35.8986 122.26C35.8853 122.607 35.8653 122.913 35.8386 123.18C35.8119 123.447 35.7919 123.633 35.7786 123.74L40.8186 116.08H44.3986V127H41.5186V122.64C41.5186 122.28 41.5319 121.887 41.5586 121.46C41.5853 121.02 41.6119 120.613 41.6386 120.24C41.6786 119.853 41.7053 119.56 41.7186 119.36L36.6986 127H33.1186V116.08H35.9986V120.4ZM52.0131 115.88C53.5198 115.88 54.7131 116.313 55.5931 117.18C56.4731 118.033 56.9131 119.253 56.9131 120.84V122.28H49.8731C49.8998 123.12 50.1465 123.78 50.6131 124.26C51.0931 124.74 51.7531 124.98 52.5931 124.98C53.2998 124.98 53.9398 124.913 54.5131 124.78C55.0865 124.633 55.6798 124.413 56.2931 124.12V126.42C55.7598 126.687 55.1931 126.88 54.5931 127C54.0065 127.133 53.2931 127.2 52.4531 127.2C51.3598 127.2 50.3931 127 49.5531 126.6C48.7131 126.187 48.0531 125.567 47.5731 124.74C47.0931 123.913 46.8531 122.873 46.8531 121.62C46.8531 120.34 47.0665 119.28 47.4931 118.44C47.9331 117.587 48.5398 116.947 49.3131 116.52C50.0865 116.093 50.9865 115.88 52.0131 115.88ZM52.0331 118C51.4598 118 50.9798 118.187 50.5931 118.56C50.2198 118.933 49.9998 119.513 49.9331 120.3H54.1131C54.0998 119.633 53.9265 119.087 53.5931 118.66C53.2598 118.22 52.7398 118 52.0331 118ZM63.3095 115.88C64.0962 115.88 64.8295 115.987 65.5095 116.2C66.2029 116.4 66.7562 116.713 67.1695 117.14C67.5962 117.567 67.8095 118.113 67.8095 118.78C67.8095 119.433 67.6095 119.953 67.2095 120.34C66.8229 120.727 66.2962 121.007 65.6295 121.18V121.28C66.0962 121.387 66.5162 121.54 66.8895 121.74C67.2629 121.927 67.5562 122.187 67.7695 122.52C67.9962 122.84 68.1095 123.273 68.1095 123.82C68.1095 124.42 67.9162 124.98 67.5295 125.5C67.1562 126.007 66.5695 126.42 65.7695 126.74C64.9829 127.047 63.9695 127.2 62.7295 127.2C60.9162 127.2 59.5162 126.973 58.5295 126.52V124.06C58.9829 124.273 59.5362 124.467 60.1895 124.64C60.8562 124.813 61.5629 124.9 62.3095 124.9C63.1229 124.9 63.8095 124.807 64.3695 124.62C64.9295 124.433 65.2095 124.107 65.2095 123.64C65.2095 122.773 64.1762 122.34 62.1095 122.34H60.9495V120.28H62.0495C63.0362 120.28 63.7962 120.2 64.3295 120.04C64.8762 119.88 65.1495 119.58 65.1495 119.14C65.1495 118.793 64.9762 118.533 64.6295 118.36C64.2829 118.173 63.7162 118.08 62.9295 118.08C62.4095 118.08 61.8429 118.14 61.2295 118.26C60.6162 118.38 60.0362 118.553 59.4895 118.78L58.6095 116.7C59.2362 116.46 59.9229 116.267 60.6695 116.12C61.4162 115.96 62.2962 115.88 63.3095 115.88ZM85.9433 116.08L81.9233 121.32L86.3233 127H83.1433L78.9833 121.46V127H76.2033V121.46L72.0433 127H68.8633L73.2633 121.32L69.2433 116.08H72.3233L76.2033 121.38V116.08H78.9833V121.38L82.8633 116.08H85.9433ZM92.3642 115.86C93.8309 115.86 94.9509 116.18 95.7242 116.82C96.5109 117.447 96.9042 118.413 96.9042 119.72V127H94.8242L94.2442 125.52H94.1642C93.6976 126.107 93.2042 126.533 92.6842 126.8C92.1642 127.067 91.4509 127.2 90.5442 127.2C89.5709 127.2 88.7642 126.92 88.1242 126.36C87.4842 125.787 87.1642 124.913 87.1642 123.74C87.1642 122.58 87.5709 121.727 88.3842 121.18C89.1976 120.62 90.4176 120.313 92.0442 120.26L93.9442 120.2V119.72C93.9442 119.147 93.7909 118.727 93.4842 118.46C93.1909 118.193 92.7776 118.06 92.2442 118.06C91.7109 118.06 91.1909 118.14 90.6842 118.3C90.1776 118.447 89.6709 118.633 89.1642 118.86L88.1842 116.84C88.7709 116.533 89.4176 116.293 90.1242 116.12C90.8442 115.947 91.5909 115.86 92.3642 115.86ZM92.7842 121.98C91.8242 122.007 91.1576 122.18 90.7842 122.5C90.4109 122.82 90.2242 123.24 90.2242 123.76C90.2242 124.213 90.3576 124.54 90.6242 124.74C90.8909 124.927 91.2376 125.02 91.6642 125.02C92.3042 125.02 92.8442 124.833 93.2842 124.46C93.7242 124.073 93.9442 123.533 93.9442 122.84V121.94L92.7842 121.98ZM104.455 115.88C105.961 115.88 107.155 116.313 108.035 117.18C108.915 118.033 109.355 119.253 109.355 120.84V122.28H102.315C102.341 123.12 102.588 123.78 103.055 124.26C103.535 124.74 104.195 124.98 105.035 124.98C105.741 124.98 106.381 124.913 106.955 124.78C107.528 124.633 108.121 124.413 108.735 124.12V126.42C108.201 126.687 107.635 126.88 107.035 127C106.448 127.133 105.735 127.2 104.895 127.2C103.801 127.2 102.835 127 101.995 126.6C101.155 126.187 100.495 125.567 100.015 124.74C99.5345 123.913 99.2945 122.873 99.2945 121.62C99.2945 120.34 99.5079 119.28 99.9345 118.44C100.375 117.587 100.981 116.947 101.755 116.52C102.528 116.093 103.428 115.88 104.455 115.88ZM104.475 118C103.901 118 103.421 118.187 103.035 118.56C102.661 118.933 102.441 119.513 102.375 120.3H106.555C106.541 119.633 106.368 119.087 106.035 118.66C105.701 118.22 105.181 118 104.475 118ZM125.531 116.08V127H122.751V121.64C122.751 121.107 122.758 120.587 122.771 120.08C122.798 119.573 122.831 119.107 122.871 118.68H122.811L119.791 127H117.551L114.491 118.66H114.411C114.464 119.1 114.498 119.573 114.511 120.08C114.538 120.573 114.551 121.12 114.551 121.72V127H111.771V116.08H115.991L118.711 123.48L121.471 116.08H125.531ZM12.72 146.08H16L11.68 151.32L16.38 157H13L8.54 151.46V157H5.56V146.08H8.54V151.38L12.72 146.08ZM27.4722 151.52C27.4722 153.333 26.9922 154.733 26.0322 155.72C25.0855 156.707 23.7922 157.2 22.1522 157.2C21.1389 157.2 20.2322 156.98 19.4322 156.54C18.6455 156.1 18.0255 155.46 17.5722 154.62C17.1189 153.767 16.8922 152.733 16.8922 151.52C16.8922 149.707 17.3655 148.313 18.3122 147.34C19.2589 146.367 20.5589 145.88 22.2122 145.88C23.2389 145.88 24.1455 146.1 24.9322 146.54C25.7189 146.98 26.3389 147.62 26.7922 148.46C27.2455 149.287 27.4722 150.307 27.4722 151.52ZM19.9322 151.52C19.9322 152.6 20.1055 153.42 20.4522 153.98C20.8122 154.527 21.3922 154.8 22.1922 154.8C22.9789 154.8 23.5455 154.527 23.8922 153.98C24.2522 153.42 24.4322 152.6 24.4322 151.52C24.4322 150.44 24.2522 149.633 23.8922 149.1C23.5455 148.553 22.9722 148.28 22.1722 148.28C21.3855 148.28 20.8122 148.553 20.4522 149.1C20.1055 149.633 19.9322 150.44 19.9322 151.52ZM34.375 157.2C32.7483 157.2 31.4883 156.753 30.595 155.86C29.715 154.953 29.275 153.533 29.275 151.6C29.275 150.267 29.5017 149.18 29.955 148.34C30.4083 147.5 31.035 146.88 31.835 146.48C32.6483 146.08 33.5817 145.88 34.635 145.88C35.3817 145.88 36.0283 145.953 36.575 146.1C37.135 146.247 37.6217 146.42 38.035 146.62L37.155 148.92C36.6883 148.733 36.2483 148.58 35.835 148.46C35.435 148.34 35.035 148.28 34.635 148.28C33.0883 148.28 32.315 149.38 32.315 151.58C32.315 152.673 32.515 153.48 32.915 154C33.3283 154.52 33.9017 154.78 34.635 154.78C35.2617 154.78 35.815 154.7 36.295 154.54C36.775 154.367 37.2417 154.133 37.695 153.84V156.38C37.2417 156.673 36.7617 156.88 36.255 157C35.7617 157.133 35.135 157.2 34.375 157.2ZM43.0884 150.4C43.0884 150.627 43.0751 150.907 43.0484 151.24C43.0351 151.573 43.0151 151.913 42.9884 152.26C42.9751 152.607 42.9551 152.913 42.9284 153.18C42.9018 153.447 42.8818 153.633 42.8684 153.74L47.9084 146.08H51.4884V157H48.6084V152.64C48.6084 152.28 48.6218 151.887 48.6484 151.46C48.6751 151.02 48.7018 150.613 48.7284 150.24C48.7684 149.853 48.7951 149.56 48.8084 149.36L43.7884 157H40.2084V146.08H43.0884V150.4ZM68.363 146.08V157H65.583V151.64C65.583 151.107 65.5896 150.587 65.603 150.08C65.6296 149.573 65.663 149.107 65.703 148.68H65.643L62.623 157H60.383L57.323 148.66H57.243C57.2963 149.1 57.3296 149.573 57.343 150.08C57.3696 150.573 57.383 151.12 57.383 151.72V157H54.603V146.08H58.823L61.543 153.48L64.303 146.08H68.363Z" fill="#333333"/>
<path d="M43.1868 66.816C39.2428 66.816 35.7294 65.8413 32.6468 63.892C29.5641 61.9427 27.1388 59.132 25.3708 55.46C23.6481 51.7427 22.7868 47.3227 22.7868 42.2C22.7868 37.0773 23.6481 32.68 25.3708 29.008C27.1388 25.2907 29.5641 22.4573 32.6468 20.508C35.7294 18.5587 39.2428 17.584 43.1868 17.584C47.1308 17.584 50.6441 18.5587 53.7268 20.508C56.8094 22.4573 59.2121 25.2907 60.9348 29.008C62.7028 32.68 63.5868 37.0773 63.5868 42.2C63.5868 47.3227 62.7028 51.7427 60.9348 55.46C59.2121 59.132 56.8094 61.9427 53.7268 63.892C50.6441 65.8413 47.1308 66.816 43.1868 66.816ZM43.1868 57.5C46.0881 57.5 48.3548 56.2533 49.9868 53.76C51.6641 51.2667 52.5028 47.4133 52.5028 42.2C52.5028 36.9867 51.6641 33.1333 49.9868 30.64C48.3548 28.1467 46.0881 26.9 43.1868 26.9C40.3308 26.9 38.0641 28.1467 36.3868 30.64C34.7548 33.1333 33.9388 36.9867 33.9388 42.2C33.9388 47.4133 34.7548 51.2667 36.3868 53.76C38.0641 56.2533 40.3308 57.5 43.1868 57.5ZM90.511 37.78C94.6817 38.46 97.8777 40.024 100.099 42.472C102.32 44.8747 103.431 47.8667 103.431 51.448C103.431 54.2133 102.706 56.7747 101.255 59.132C99.8044 61.444 97.583 63.3027 94.591 64.708C91.6444 66.1133 88.0177 66.816 83.711 66.816C80.3564 66.816 77.047 66.3853 73.783 65.524C70.5644 64.6173 67.8217 63.348 65.555 61.716L69.839 53.284C71.6524 54.644 73.7377 55.7093 76.095 56.48C78.4977 57.2053 80.9457 57.568 83.439 57.568C86.2044 57.568 88.3804 57.0467 89.967 56.004C91.5537 54.916 92.347 53.3973 92.347 51.448C92.347 47.5493 89.3777 45.6 83.439 45.6H78.407V38.324L88.199 27.24H67.935V18.4H101.255V25.54L90.511 37.78Z" fill="#EAEAEA"/>
<circle cx="129.5" cy="63.5" r="2.5" fill="black"/>
<circle cx="129.5" cy="63.5" r="2.5" fill="black"/>
<circle cx="144.5" cy="63.5" r="2.5" fill="black"/>
<circle cx="144.5" cy="63.5" r="2.5" fill="black"/>
<circle cx="159.5" cy="63.5" r="2.5" fill="black"/>
<circle cx="159.5" cy="63.5" r="2.5" fill="black"/>
<g clip-path="url(#clip0)">
<path d="M48.7189 58.8917C48.4793 58.5993 48.1217 58.4287 47.7466 58.4287H42.9777C41.8008 55.3246 40.2677 52.2833 38.525 51.1353C32.4964 47.1693 16.506 47.1693 10.4775 51.1353C8.73353 52.2846 7.20663 55.3297 6.0235 58.4287H1.25461C0.875711 58.4287 0.519393 58.5993 0.282265 58.8917C0.0438837 59.1828 -0.051469 59.5679 0.0263187 59.9381L0.732682 63.3608C0.853127 63.9442 1.36753 64.3608 1.96097 64.3608H3.3737C2.00991 65.9342 1.34871 67.9153 1.33993 69.8977C1.33115 72.3468 2.26083 74.56 3.96087 76.1259C3.97969 76.1422 3.99851 76.1535 4.01608 76.1698V80.9589C4.01608 81.9965 4.8592 82.8409 5.89804 82.8409H10.2968C11.3357 82.8409 12.1788 81.9965 12.1788 80.9589V79.0342H36.8212V80.9589C36.8212 81.9965 37.6643 82.8409 38.7031 82.8409H43.1019C44.1382 82.8409 44.9839 81.9965 44.9839 80.9589V76.2639C46.788 74.6115 47.65 72.338 47.6613 70.0683C47.6688 68.0182 46.9775 65.9643 45.5334 64.3583H47.0402C47.6362 64.3583 48.1506 63.9417 48.2685 63.3571L48.9761 59.9356C49.0489 59.5679 48.9573 59.1853 48.7189 58.8917ZM12.5439 54.2782C17.3491 51.1152 31.6508 51.1152 36.4536 54.2782C37.387 54.8905 38.5877 57.366 39.688 60.3973H9.31192C10.4097 57.3672 11.6104 54.893 12.5439 54.2782ZM6.91555 70.3694C6.91555 68.3243 8.57419 66.6681 10.618 66.6681C12.6643 66.6681 14.3204 68.3243 14.3204 70.3694C14.3204 72.4145 12.6643 74.072 10.618 74.072C8.57419 74.072 6.91555 72.4145 6.91555 70.3694ZM38.4309 74.072C36.3871 74.072 34.7284 72.4145 34.7284 70.3694C34.7284 68.3243 36.3871 66.6681 38.4309 66.6681C40.4772 66.6681 42.1333 68.3243 42.1333 70.3694C42.1333 72.4145 40.4747 74.072 38.4309 74.072Z" fill="#219653"/>
</g>
<defs>
<clipPath id="clip0">
<rect width="49" height="49" fill="white" transform="translate(0 41)"/>
</clipPath>
</defs>
</svg>
