<svg width="166" height="135" viewBox="0 0 166 135" fill="none" xmlns="http://www.w3.org/2000/svg">
<path d="M15.76 119.84C15.76 121.32 15.5133 122.613 15.02 123.72C14.54 124.813 13.8 125.667 12.8 126.28C11.8 126.893 10.52 127.2 8.96 127.2C7.41333 127.2 6.13333 126.893 5.12 126.28C4.12 125.667 3.37333 124.807 2.88 123.7C2.4 122.593 2.16 121.3 2.16 119.82C2.16 118.34 2.4 117.053 2.88 115.96C3.37333 114.867 4.12 114.02 5.12 113.42C6.13333 112.807 7.42 112.5 8.98 112.5C10.5267 112.5 11.8 112.807 12.8 113.42C13.8 114.02 14.54 114.873 15.02 115.98C15.5133 117.073 15.76 118.36 15.76 119.84ZM5.34 119.84C5.34 121.333 5.62667 122.513 6.2 123.38C6.77333 124.233 7.69333 124.66 8.96 124.66C10.2533 124.66 11.18 124.233 11.74 123.38C12.3 122.513 12.58 121.333 12.58 119.84C12.58 118.333 12.3 117.153 11.74 116.3C11.18 115.447 10.26 115.02 8.98 115.02C7.7 115.02 6.77333 115.447 6.2 116.3C5.62667 117.153 5.34 118.333 5.34 119.84ZM28.398 116.08V127H25.418V118.32H21.458V127H18.478V116.08H28.398ZM41.3048 127H38.3248V118.32H35.5848C35.4115 120.453 35.1782 122.173 34.8848 123.48C34.6048 124.773 34.2115 125.72 33.7048 126.32C33.1982 126.907 32.5182 127.2 31.6648 127.2C30.9715 127.2 30.4048 127.093 29.9648 126.88V124.5C30.2715 124.633 30.5915 124.7 30.9248 124.7C31.1648 124.7 31.3848 124.58 31.5848 124.34C31.7848 124.1 31.9715 123.667 32.1448 123.04C32.3315 122.413 32.4982 121.54 32.6448 120.42C32.7915 119.287 32.9248 117.84 33.0448 116.08H41.3048V127ZM48.8955 115.86C50.3621 115.86 51.4821 116.18 52.2555 116.82C53.0421 117.447 53.4355 118.413 53.4355 119.72V127H51.3555L50.7755 125.52H50.6955C50.2288 126.107 49.7355 126.533 49.2155 126.8C48.6955 127.067 47.9821 127.2 47.0755 127.2C46.1021 127.2 45.2955 126.92 44.6555 126.36C44.0155 125.787 43.6955 124.913 43.6955 123.74C43.6955 122.58 44.1021 121.727 44.9155 121.18C45.7288 120.62 46.9488 120.313 48.5755 120.26L50.4755 120.2V119.72C50.4755 119.147 50.3221 118.727 50.0155 118.46C49.7221 118.193 49.3088 118.06 48.7755 118.06C48.2421 118.06 47.7221 118.14 47.2155 118.3C46.7088 118.447 46.2021 118.633 45.6955 118.86L44.7155 116.84C45.3021 116.533 45.9488 116.293 46.6555 116.12C47.3755 115.947 48.1221 115.86 48.8955 115.86ZM49.3155 121.98C48.3555 122.007 47.6888 122.18 47.3155 122.5C46.9421 122.82 46.7555 123.24 46.7555 123.76C46.7555 124.213 46.8888 124.54 47.1555 124.74C47.4221 124.927 47.7688 125.02 48.1955 125.02C48.8355 125.02 49.3755 124.833 49.8155 124.46C50.2555 124.073 50.4755 123.533 50.4755 122.84V121.94L49.3155 121.98ZM59.1058 120.08C59.1058 121.027 59.5458 121.5 60.4258 121.5C60.9991 121.5 61.5324 121.44 62.0258 121.32C62.5191 121.187 63.0124 121.013 63.5058 120.8V116.08H66.4858V127H63.5058V122.66C63.0391 122.913 62.5058 123.147 61.9058 123.36C61.3058 123.56 60.6258 123.66 59.8658 123.66C58.7324 123.66 57.8258 123.367 57.1458 122.78C56.4658 122.193 56.1258 121.313 56.1258 120.14V116.08H59.1058V120.08ZM72.4908 120.4C72.4908 120.627 72.4774 120.907 72.4508 121.24C72.4374 121.573 72.4174 121.913 72.3908 122.26C72.3774 122.607 72.3574 122.913 72.3308 123.18C72.3041 123.447 72.2841 123.633 72.2708 123.74L77.3108 116.08H80.8908V127H78.0108V122.64C78.0108 122.28 78.0241 121.887 78.0508 121.46C78.0774 121.02 78.1041 120.613 78.1308 120.24C78.1708 119.853 78.1974 119.56 78.2108 119.36L73.1908 127H69.6108V116.08H72.4908V120.4ZM93.6853 118.94C93.6853 119.527 93.4986 120.027 93.1253 120.44C92.7653 120.853 92.2253 121.12 91.5053 121.24V121.32C92.2653 121.413 92.872 121.673 93.3253 122.1C93.792 122.527 94.0253 123.073 94.0253 123.74C94.0253 124.367 93.8586 124.927 93.5253 125.42C93.2053 125.913 92.692 126.3 91.9853 126.58C91.2786 126.86 90.352 127 89.2053 127H84.0053V116.08H89.2053C90.0586 116.08 90.8186 116.173 91.4853 116.36C92.1653 116.533 92.6986 116.827 93.0853 117.24C93.4853 117.653 93.6853 118.22 93.6853 118.94ZM90.6653 119.18C90.6653 118.513 90.1386 118.18 89.0853 118.18H86.9853V120.34H88.7453C89.372 120.34 89.8453 120.253 90.1653 120.08C90.4986 119.893 90.6653 119.593 90.6653 119.18ZM90.9453 123.58C90.9453 123.153 90.7786 122.847 90.4453 122.66C90.112 122.46 89.612 122.36 88.9453 122.36H86.9853V124.94H89.0053C89.5653 124.94 90.0253 124.84 90.3853 124.64C90.7586 124.427 90.9453 124.073 90.9453 123.58ZM101.063 115.86C102.53 115.86 103.65 116.18 104.423 116.82C105.21 117.447 105.603 118.413 105.603 119.72V127H103.523L102.943 125.52H102.863C102.397 126.107 101.903 126.533 101.383 126.8C100.863 127.067 100.15 127.2 99.2434 127.2C98.2701 127.2 97.4634 126.92 96.8234 126.36C96.1834 125.787 95.8634 124.913 95.8634 123.74C95.8634 122.58 96.2701 121.727 97.0834 121.18C97.8968 120.62 99.1168 120.313 100.743 120.26L102.643 120.2V119.72C102.643 119.147 102.49 118.727 102.183 118.46C101.89 118.193 101.477 118.06 100.943 118.06C100.41 118.06 99.8901 118.14 99.3834 118.3C98.8768 118.447 98.3701 118.633 97.8634 118.86L96.8834 116.84C97.4701 116.533 98.1168 116.293 98.8234 116.12C99.5434 115.947 100.29 115.86 101.063 115.86ZM101.483 121.98C100.523 122.007 99.8568 122.18 99.4834 122.5C99.1101 122.82 98.9234 123.24 98.9234 123.76C98.9234 124.213 99.0568 124.54 99.3234 124.74C99.5901 124.927 99.9368 125.02 100.363 125.02C101.003 125.02 101.543 124.833 101.983 124.46C102.423 124.073 102.643 123.533 102.643 122.84V121.94L101.483 121.98ZM113.154 115.88C114.66 115.88 115.854 116.313 116.734 117.18C117.614 118.033 118.054 119.253 118.054 120.84V122.28H111.014C111.04 123.12 111.287 123.78 111.754 124.26C112.234 124.74 112.894 124.98 113.734 124.98C114.44 124.98 115.08 124.913 115.654 124.78C116.227 124.633 116.82 124.413 117.434 124.12V126.42C116.9 126.687 116.334 126.88 115.734 127C115.147 127.133 114.434 127.2 113.594 127.2C112.5 127.2 111.534 127 110.694 126.6C109.854 126.187 109.194 125.567 108.714 124.74C108.234 123.913 107.994 122.873 107.994 121.62C107.994 120.34 108.207 119.28 108.634 118.44C109.074 117.587 109.68 116.947 110.454 116.52C111.227 116.093 112.127 115.88 113.154 115.88ZM113.174 118C112.6 118 112.12 118.187 111.734 118.56C111.36 118.933 111.14 119.513 111.074 120.3H115.254C115.24 119.633 115.067 119.087 114.734 118.66C114.4 118.22 113.88 118 113.174 118ZM129.51 118.32H125.93V127H122.95V118.32H119.37V116.08H129.51V118.32ZM135.83 115.88C137.336 115.88 138.53 116.313 139.41 117.18C140.29 118.033 140.73 119.253 140.73 120.84V122.28H133.69C133.716 123.12 133.963 123.78 134.43 124.26C134.91 124.74 135.57 124.98 136.41 124.98C137.116 124.98 137.756 124.913 138.33 124.78C138.903 124.633 139.496 124.413 140.11 124.12V126.42C139.576 126.687 139.01 126.88 138.41 127C137.823 127.133 137.11 127.2 136.27 127.2C135.176 127.2 134.21 127 133.37 126.6C132.53 126.187 131.87 125.567 131.39 124.74C130.91 123.913 130.67 122.873 130.67 121.62C130.67 120.34 130.883 119.28 131.31 118.44C131.75 117.587 132.356 116.947 133.13 116.52C133.903 116.093 134.803 115.88 135.83 115.88ZM135.85 118C135.276 118 134.796 118.187 134.41 118.56C134.036 118.933 133.816 119.513 133.75 120.3H137.93C137.916 119.633 137.743 119.087 137.41 118.66C137.076 118.22 136.556 118 135.85 118Z" fill="#333333"/>
<path d="M47.2551 66.816C43.3111 66.816 39.7978 65.8413 36.7151 63.892C33.6325 61.9427 31.2071 59.132 29.4391 55.46C27.7165 51.7427 26.8551 47.3227 26.8551 42.2C26.8551 37.0773 27.7165 32.68 29.4391 29.008C31.2071 25.2907 33.6325 22.4573 36.7151 20.508C39.7978 18.5587 43.3111 17.584 47.2551 17.584C51.1991 17.584 54.7125 18.5587 57.7951 20.508C60.8778 22.4573 63.2805 25.2907 65.0031 29.008C66.7711 32.68 67.6551 37.0773 67.6551 42.2C67.6551 47.3227 66.7711 51.7427 65.0031 55.46C63.2805 59.132 60.8778 61.9427 57.7951 63.892C54.7125 65.8413 51.1991 66.816 47.2551 66.816ZM47.2551 57.5C50.1565 57.5 52.4231 56.2533 54.0551 53.76C55.7325 51.2667 56.5711 47.4133 56.5711 42.2C56.5711 36.9867 55.7325 33.1333 54.0551 30.64C52.4231 28.1467 50.1565 26.9 47.2551 26.9C44.3991 26.9 42.1325 28.1467 40.4551 30.64C38.8231 33.1333 38.0071 36.9867 38.0071 42.2C38.0071 47.4133 38.8231 51.2667 40.4551 53.76C42.1325 56.2533 44.3991 57.5 47.2551 57.5ZM89.3275 36.284C96.0368 36.284 100.978 37.6213 104.151 40.296C107.37 42.9707 108.979 46.552 108.979 51.04C108.979 53.9413 108.254 56.5933 106.803 58.996C105.353 61.3533 103.131 63.2573 100.139 64.708C97.1928 66.1133 93.5435 66.816 89.1915 66.816C85.8368 66.816 82.5275 66.3853 79.2635 65.524C76.0448 64.6173 73.3021 63.348 71.0355 61.716L75.3875 53.284C77.2008 54.644 79.2861 55.7093 81.6435 56.48C84.0008 57.2053 86.4261 57.568 88.9195 57.568C91.6848 57.568 93.8608 57.024 95.4475 55.936C97.0341 54.848 97.8275 53.3293 97.8275 51.38C97.8275 49.34 96.9888 47.7987 95.3115 46.756C93.6795 45.7133 90.8235 45.192 86.7435 45.192H74.5715L77.0195 18.4H106.055V27.24H86.1995L85.4515 36.284H89.3275Z" fill="#EAEAEA"/>
<circle cx="133.5" cy="63.5" r="2.5" fill="black"/>
<circle cx="133.5" cy="63.5" r="2.5" fill="black"/>
<circle cx="148.5" cy="63.5" r="2.5" fill="black"/>
<circle cx="148.5" cy="63.5" r="2.5" fill="black"/>
<circle cx="163.5" cy="63.5" r="2.5" fill="black"/>
<circle cx="163.5" cy="63.5" r="2.5" fill="black"/>
<g clip-path="url(#clip0)">
<path d="M38.138 52.0616L33.4497 44.0299C33.2267 43.6478 32.8601 43.3696 32.4317 43.2591C32.0055 43.1531 31.5483 43.215 31.1685 43.4424L16.8364 52.0417L38.138 52.0616Z" fill="#219653"/>
<path d="M6.625 54.25C5.41042 54.25 4.41667 53.2562 4.41667 52.0416C4.41667 50.827 5.41042 49.8333 6.625 49.8333H14.0671L21.4429 45.4166H6.625C3.35667 45.4166 0.640417 47.8016 0.110417 50.9375C0.06625 51.1141 0 51.2908 0 51.4895V85.1666C0 88.8104 2.98125 91.7916 6.625 91.7916H44.1667C46.5958 91.7916 48.5833 89.8041 48.5833 87.375V82.9583H43.0625C37.5858 82.9583 33.125 78.4975 33.125 73.0208C33.125 67.5441 37.5858 63.0833 43.0625 63.0833H48.5833V58.6666C48.5833 56.2375 46.5958 54.25 44.1667 54.25H6.625ZM41.9583 49.8333C41.9583 47.6029 40.3021 45.7479 38.1379 45.4608L41.9583 52.0416V49.8333Z" fill="#219653"/>
<path d="M51.3437 66.3959H43.0625C39.4099 66.3959 36.4375 69.3683 36.4375 73.0209C36.4375 76.6735 39.4099 79.6459 43.0625 79.6459H51.3437C52.258 79.6459 53 78.9039 53 77.9896V68.0521C53 67.1379 52.258 66.3959 51.3437 66.3959ZM43.0625 75.2292C41.8435 75.2292 40.8542 74.2399 40.8542 73.0209C40.8542 71.8019 41.8435 70.8125 43.0625 70.8125C44.2815 70.8125 45.2708 71.8019 45.2708 73.0209C45.2708 74.2399 44.2815 75.2292 43.0625 75.2292Z" fill="#219653"/>
</g>
<defs>
<clipPath id="clip0">
<rect width="53" height="53" fill="white" transform="translate(0 41)"/>
</clipPath>
</defs>
</svg>
