<svg width="152" height="135" viewBox="0 0 152 135" fill="none" xmlns="http://www.w3.org/2000/svg">
<path d="M11.6971 116.06C11.6971 117.02 11.3571 117.793 10.6771 118.38C9.99711 118.967 9.13044 119.333 8.07711 119.48V119.54C9.38378 119.673 10.3838 120.04 11.0771 120.64C11.7838 121.227 12.1371 121.993 12.1371 122.94C12.1371 124.193 11.6238 125.22 10.5971 126.02C9.58378 126.807 8.09044 127.2 6.11711 127.2C5.03711 127.2 4.07711 127.133 3.23711 127C2.41044 126.867 1.69044 126.673 1.07711 126.42V123.88C1.49044 124.08 1.95711 124.253 2.47711 124.4C2.99711 124.533 3.52378 124.64 4.05711 124.72C4.59044 124.787 5.08378 124.82 5.53711 124.82C6.80378 124.82 7.71711 124.64 8.27711 124.28C8.85044 123.907 9.13711 123.387 9.13711 122.72C9.13711 122.04 8.72378 121.547 7.89711 121.24C7.07044 120.92 5.95711 120.76 4.55711 120.76H3.21711V118.4H4.41711C5.55044 118.4 6.43044 118.327 7.05711 118.18C7.68378 118.033 8.12378 117.82 8.37711 117.54C8.63044 117.26 8.75711 116.927 8.75711 116.54C8.75711 116.047 8.53711 115.66 8.09711 115.38C7.67044 115.087 7.02378 114.94 6.15711 114.94C5.42378 114.94 4.73044 115.047 4.07711 115.26C3.43711 115.473 2.83711 115.753 2.27711 116.1L0.957109 114.08C1.69044 113.6 2.50378 113.22 3.39711 112.94C4.29044 112.66 5.35044 112.52 6.57711 112.52C8.19044 112.52 9.44378 112.853 10.3371 113.52C11.2438 114.187 11.6971 115.033 11.6971 116.06ZM19.0459 115.86C20.5125 115.86 21.6325 116.18 22.4059 116.82C23.1925 117.447 23.5859 118.413 23.5859 119.72V127H21.5059L20.9259 125.52H20.8459C20.3792 126.107 19.8859 126.533 19.3659 126.8C18.8459 127.067 18.1325 127.2 17.2259 127.2C16.2525 127.2 15.4459 126.92 14.8059 126.36C14.1659 125.787 13.8459 124.913 13.8459 123.74C13.8459 122.58 14.2525 121.727 15.0659 121.18C15.8792 120.62 17.0992 120.313 18.7259 120.26L20.6259 120.2V119.72C20.6259 119.147 20.4725 118.727 20.1659 118.46C19.8725 118.193 19.4592 118.06 18.9259 118.06C18.3925 118.06 17.8725 118.14 17.3659 118.3C16.8592 118.447 16.3525 118.633 15.8459 118.86L14.8659 116.84C15.4525 116.533 16.0992 116.293 16.8059 116.12C17.5259 115.947 18.2725 115.86 19.0459 115.86ZM19.4659 121.98C18.5059 122.007 17.8392 122.18 17.4659 122.5C17.0925 122.82 16.9059 123.24 16.9059 123.76C16.9059 124.213 17.0392 124.54 17.3059 124.74C17.5725 124.927 17.9192 125.02 18.3459 125.02C18.9859 125.02 19.5259 124.833 19.9659 124.46C20.4059 124.073 20.6259 123.533 20.6259 122.84V121.94L19.4659 121.98ZM28.2962 127H25.0762L28.0162 122.68C27.4562 122.453 26.9562 122.087 26.5162 121.58C26.0895 121.06 25.8762 120.353 25.8762 119.46C25.8762 118.367 26.2895 117.533 27.1162 116.96C27.9428 116.373 29.0028 116.08 30.2962 116.08H35.3762V127H32.3962V122.94H30.7562L28.2962 127ZM28.7962 119.48C28.7962 119.933 28.9762 120.293 29.3362 120.56C29.6962 120.813 30.1628 120.94 30.7362 120.94H32.3962V118.18H30.3562C29.8228 118.18 29.4295 118.313 29.1762 118.58C28.9228 118.833 28.7962 119.133 28.7962 119.48ZM48.1716 118.94C48.1716 119.527 47.985 120.027 47.6116 120.44C47.2516 120.853 46.7116 121.12 45.9916 121.24V121.32C46.7516 121.413 47.3583 121.673 47.8116 122.1C48.2783 122.527 48.5116 123.073 48.5116 123.74C48.5116 124.367 48.345 124.927 48.0116 125.42C47.6916 125.913 47.1783 126.3 46.4716 126.58C45.765 126.86 44.8383 127 43.6916 127H38.4916V116.08H43.6916C44.545 116.08 45.305 116.173 45.9716 116.36C46.6516 116.533 47.185 116.827 47.5716 117.24C47.9716 117.653 48.1716 118.22 48.1716 118.94ZM45.1516 119.18C45.1516 118.513 44.625 118.18 43.5716 118.18H41.4716V120.34H43.2316C43.8583 120.34 44.3316 120.253 44.6516 120.08C44.985 119.893 45.1516 119.593 45.1516 119.18ZM45.4316 123.58C45.4316 123.153 45.265 122.847 44.9316 122.66C44.5983 122.46 44.0983 122.36 43.4316 122.36H41.4716V124.94H43.4916C44.0516 124.94 44.5116 124.84 44.8716 124.64C45.245 124.427 45.4316 124.073 45.4316 123.58ZM58.2298 116.08H61.5098L57.1898 121.32L61.8898 127H58.5098L54.0498 121.46V127H51.0698V116.08H54.0498V121.38L58.2298 116.08ZM67.9326 115.86C69.3992 115.86 70.5192 116.18 71.2926 116.82C72.0792 117.447 72.4726 118.413 72.4726 119.72V127H70.3926L69.8126 125.52H69.7326C69.2659 126.107 68.7726 126.533 68.2526 126.8C67.7326 127.067 67.0192 127.2 66.1126 127.2C65.1392 127.2 64.3326 126.92 63.6926 126.36C63.0526 125.787 62.7326 124.913 62.7326 123.74C62.7326 122.58 63.1392 121.727 63.9526 121.18C64.7659 120.62 65.9859 120.313 67.6126 120.26L69.5126 120.2V119.72C69.5126 119.147 69.3592 118.727 69.0526 118.46C68.7592 118.193 68.3459 118.06 67.8126 118.06C67.2792 118.06 66.7592 118.14 66.2526 118.3C65.7459 118.447 65.2392 118.633 64.7326 118.86L63.7526 116.84C64.3392 116.533 64.9859 116.293 65.6926 116.12C66.4126 115.947 67.1592 115.86 67.9326 115.86ZM68.3526 121.98C67.3926 122.007 66.7259 122.18 66.3526 122.5C65.9792 122.82 65.7926 123.24 65.7926 123.76C65.7926 124.213 65.9259 124.54 66.1926 124.74C66.4592 124.927 66.8059 125.02 67.2326 125.02C67.8726 125.02 68.4126 124.833 68.8526 124.46C69.2926 124.073 69.5126 123.533 69.5126 122.84V121.94L68.3526 121.98Z" fill="#333333"/>
<path d="M40.3606 66.816C36.4166 66.816 32.9033 65.8413 29.8206 63.892C26.7379 61.9427 24.3126 59.132 22.5446 55.46C20.8219 51.7427 19.9606 47.3227 19.9606 42.2C19.9606 37.0773 20.8219 32.68 22.5446 29.008C24.3126 25.2907 26.7379 22.4573 29.8206 20.508C32.9033 18.5587 36.4166 17.584 40.3606 17.584C44.3046 17.584 47.8179 18.5587 50.9006 20.508C53.9833 22.4573 56.3859 25.2907 58.1086 29.008C59.8766 32.68 60.7606 37.0773 60.7606 42.2C60.7606 47.3227 59.8766 51.7427 58.1086 55.46C56.3859 59.132 53.9833 61.9427 50.9006 63.892C47.8179 65.8413 44.3046 66.816 40.3606 66.816ZM40.3606 57.5C43.2619 57.5 45.5286 56.2533 47.1606 53.76C48.8379 51.2667 49.6766 47.4133 49.6766 42.2C49.6766 36.9867 48.8379 33.1333 47.1606 30.64C45.5286 28.1467 43.2619 26.9 40.3606 26.9C37.5046 26.9 35.2379 28.1467 33.5606 30.64C31.9286 33.1333 31.1126 36.9867 31.1126 42.2C31.1126 47.4133 31.9286 51.2667 33.5606 53.76C35.2379 56.2533 37.5046 57.5 40.3606 57.5ZM84.0745 18.4V66H73.0585V27.24H63.5385V18.4H84.0745Z" fill="#EAEAEA"/>
<g clip-path="url(#clip0)">
<path d="M48.6935 73.2272L41.9949 66.5286C39.6026 64.1363 35.5356 65.0933 34.5787 68.2033C33.861 70.3565 31.4686 71.5526 29.3155 71.0741C24.5309 69.8779 18.0716 63.6578 16.8754 58.6339C16.1577 56.4807 17.5931 54.0884 19.7462 53.3708C22.8562 52.4138 23.8132 48.3469 21.4208 45.9545L14.7223 39.256C12.8084 37.5813 9.93761 37.5813 8.26297 39.256L3.71753 43.8014C-0.827911 48.5861 4.196 61.2655 15.44 72.5095C26.684 83.7534 39.3634 89.0167 44.148 84.2319L48.6935 79.6865C50.3682 77.7726 50.3682 74.9018 48.6935 73.2272Z" fill="#219653"/>
</g>
<circle cx="119.5" cy="63.5" r="2.5" fill="black"/>
<circle cx="119.5" cy="63.5" r="2.5" fill="black"/>
<circle cx="134.5" cy="63.5" r="2.5" fill="black"/>
<circle cx="134.5" cy="63.5" r="2.5" fill="black"/>
<circle cx="149.5" cy="63.5" r="2.5" fill="black"/>
<circle cx="149.5" cy="63.5" r="2.5" fill="black"/>
<defs>
<clipPath id="clip0">
<rect width="48" height="48" fill="white" transform="translate(2 38)"/>
</clipPath>
</defs>
</svg>
